<?xml version="1.0" encoding="utf-8"?>
<!-- Generator: Adobe Illustrator 25.4.1, SVG Export Plug-In . SVG Version: 6.00 Build 0)  -->
<svg version="1.1" id="Layer_1" xmlns="http://www.w3.org/2000/svg" xmlns:xlink="http://www.w3.org/1999/xlink" x="0px" y="0px"
	 viewBox="0 0 349.7 102" style="enable-background:new 0 0 349.7 102;" xml:space="preserve">
<style type="text/css">
	.st0{fill:#FFFFFF;}
</style>
<g id="SVLnAz.tif">
</g>
<path class="st0" d="M172.8,0.1c3,0,5.8,0,8.7,0c0,33.5,0,66.9,0,100.4c-2.9,0-5.7,0-8.7,0C172.8,67,172.8,33.6,172.8,0.1z"/>
<path class="st0" d="M25.1,0.1c2.9,0,5.7,0,8.6,0c0,33.4,0,66.9,0,100.4c-2.8,0-5.7,0-8.6,0C25.1,67,25.1,33.6,25.1,0.1z"/>
<path class="st0" d="M130.1,100.5c-2.2,0-4.3,0-6.5,0c0-33.5,0-66.9,0-100.4c2.1,0,4.3,0,6.5,0C130.1,33.5,130.1,66.9,130.1,100.5z"
	/>
<path class="st0" d="M331.8,0.1c2.2,0,4.3,0,6.4,0c0,33.4,0,66.8,0,100.3c-2.1,0-4.2,0-6.4,0C331.8,67,331.8,33.6,331.8,0.1z"/>
<path class="st0" d="M253.4,100.4c0-33.5,0-66.9,0-100.3c2.2,0,4.3,0,6.5,0c0,33.4,0,66.8,0,100.3
	C257.7,100.4,255.6,100.4,253.4,100.4z"/>
<path class="st0" d="M20.4,100.5c-2.2,0-4.3,0-6.5,0c0-33.4,0-66.8,0-100.3c2.1,0,4.2,0,6.5,0C20.4,33.5,20.4,66.9,20.4,100.5z"/>
<path class="st0" d="M40.8,0.1c2.2,0,4.3,0,6.4,0c0,33.4,0,66.8,0,100.3c-2.1,0-4.2,0-6.4,0C40.8,67,40.8,33.6,40.8,0.1z"/>
<path class="st0" d="M94.2,100.5c-2.2,0-4.3,0-6.4,0c0-33.4,0-66.8,0-100.3c2.1,0,4.2,0,6.4,0C94.2,33.5,94.2,66.9,94.2,100.5z"/>
<path class="st0" d="M222,0.1c1.5,0,2.9,0,4.3,0c0,33.5,0,66.9,0,100.4c-1.4,0-2.8,0-4.3,0C222,67,222,33.6,222,0.1z"/>
<path class="st0" d="M213.1,0.1c1.5,0,2.8,0,4.3,0c0,33.5,0,66.9,0,100.4c-1.5,0-2.8,0-4.3,0C213.1,67,213.1,33.6,213.1,0.1z"/>
<path class="st0" d="M60.7,100.5c-1.5,0-2.8,0-4.3,0c0-33.4,0-66.8,0-100.3c1.4,0,2.8,0,4.3,0C60.7,33.5,60.7,66.9,60.7,100.5z"/>
<path class="st0" d="M65.3,100.4c0-33.5,0-66.8,0-100.3c1.4,0,2.8,0,4.4,0c0,33.4,0,66.8,0,100.3C68.3,100.4,66.9,100.4,65.3,100.4z
	"/>
<path class="st0" d="M190.7,0.1c1.5,0,2.8,0,4.3,0c0,33.4,0,66.8,0,100.3c-1.4,0-2.8,0-4.3,0C190.7,67,190.7,33.6,190.7,0.1z"/>
<path class="st0" d="M188.3,100.5c-1.5,0-2.8,0-4.3,0c0-33.4,0-66.8,0-100.3c1.4,0,2.8,0,4.3,0C188.3,33.6,188.3,67,188.3,100.5z"/>
<path class="st0" d="M112.4,0.1c1.5,0,2.8,0,4.2,0c0,33.4,0,66.8,0,100.3c-1.3,0-2.7,0-4.2,0C112.4,67,112.4,33.6,112.4,0.1z"/>
<path class="st0" d="M145.7,100.5c-1.5,0-2.8,0-4.3,0c0-33.5,0-66.9,0-100.4c1.4,0,2.8,0,4.3,0C145.7,33.5,145.7,66.9,145.7,100.5z"
	/>
<path class="st0" d="M152.4,100.5c-1.4,0-2.8,0-4.2,0c0-33.5,0-66.9,0-100.4c1.4,0,2.7,0,4.2,0C152.4,33.5,152.4,66.9,152.4,100.5z"
	/>
<path class="st0" d="M349.4,100.4c-1.5,0-2.8,0-4.3,0c0-33.4,0-66.8,0-100.3c1.4,0,2.8,0,4.3,0C349.4,33.5,349.4,66.9,349.4,100.4z"
	/>
<path class="st0" d="M78.8,0.1c1.5,0,2.8,0,4.3,0c0,33.5,0,66.9,0,100.4c-1.5,0-2.8,0-4.3,0C78.8,67,78.8,33.6,78.8,0.1z"/>
<path class="st0" d="M197.5,0.1c1.4,0,2.7,0,4.2,0c0,33.4,0,66.8,0,100.4c-1.3,0-2.7,0-4.2,0C197.5,67,197.5,33.6,197.5,0.1z"/>
<path class="st0" d="M210.6,100.5c-1.4,0-2.7,0-4.2,0c0-33.5,0-66.9,0-100.4c1.3,0,2.7,0,4.2,0C210.6,33.5,210.6,66.9,210.6,100.5z"
	/>
<path class="st0" d="M49.7,0.1c1.5,0,2.8,0,4.3,0c0,33.5,0,66.9,0,100.4c-1.4,0-2.8,0-4.3,0C49.7,67,49.7,33.6,49.7,0.1z"/>
<path class="st0" d="M250.9,100.5c-1.4,0-2.7,0-4.2,0c0-33.5,0-66.9,0-100.4c1.3,0,2.7,0,4.2,0C250.9,33.5,250.9,66.9,250.9,100.5z"
	/>
<path class="st0" d="M284.8,0.1c1.4,0,2.7,0,4.2,0c0,33.5,0,66.9,0,100.4c-1.4,0-2.7,0-4.2,0C284.8,67,284.8,33.6,284.8,0.1z"/>
<path class="st0" d="M300.2,0.1c0,33.5,0,66.9,0,100.3c-1.4,0-2.8,0-4.3,0c0-33.5,0-66.9,0-100.3C297.4,0.1,298.7,0.1,300.2,0.1z"/>
<path class="st0" d="M324.8,100.5c-1.5,0-2.8,0-4.2,0c0-33.4,0-66.8,0-100.3c1.3,0,2.7,0,4.2,0C324.8,33.5,324.8,66.9,324.8,100.5z"
	/>
<path class="st0" d="M4.7,100.5c-1.5,0-2.8,0-4.2,0c0-33.4,0-66.8,0-100.3c1.3,0,2.7,0,4.2,0C4.7,33.5,4.7,66.9,4.7,100.5z"/>
<path class="st0" d="M107.9,0.1c0.7,0,1.3,0,2,0c0,33.5,0,66.9,0,100.4c-0.7,0-1.3,0-2,0C107.9,67,107.9,33.6,107.9,0.1z"/>
<path class="st0" d="M137,0.1c0.7,0,1.3,0,2,0c0,33.5,0,66.9,0,100.4c-0.7,0-1.3,0-2,0C137,67,137,33.6,137,0.1z"/>
<path class="st0" d="M163.6,100.5c-0.7,0-1.3,0-2,0c0-33.5,0-66.9,0-100.4c0.7,0,1.3,0,2,0C163.6,33.5,163.6,66.9,163.6,100.5z"/>
<path class="st0" d="M99,0.1c0.7,0,1.3,0,2,0c0,33.4,0,66.8,0,100.4c-0.6,0-1.3,0-2,0C99,67.1,99,33.6,99,0.1z"/>
<path class="st0" d="M74.3,0.1c0.7,0,1.3,0,2,0c0,33.4,0,66.8,0,100.4c-0.6,0-1.2,0-2,0C74.3,67,74.3,33.6,74.3,0.1z"/>
<path class="st0" d="M36.2,0.1c0.7,0,1.3,0,2,0c0,33.4,0,66.8,0,100.4c-0.6,0-1.2,0-2,0C36.2,67,36.2,33.6,36.2,0.1z"/>
<path class="st0" d="M233.3,0.1c0.7,0,1.3,0,2,0c0,33.5,0,66.9,0,100.4c-0.6,0-1.3,0-2,0C233.3,67,233.3,33.6,233.3,0.1z"/>
<path class="st0" d="M242,100.5c-0.7,0-1.3,0-2,0c0-33.5,0-66.9,0-100.4c0.7,0,1.3,0,2,0C242,33.5,242,66.9,242,100.5z"/>
<path class="st0" d="M9.2,100.4c-0.7,0-1.4,0-2.1,0c0-33.5,0-66.8,0-100.4C7.8,0.1,8.4,0,9.2,0C9.2,33.5,9.2,66.9,9.2,100.4z"/>
<path class="st0" d="M271.3,0c0.7,0,1.3,0,2,0c0,33.5,0,66.9,0,100.4c-0.6,0-1.3,0-2,0C271.3,67,271.3,33.6,271.3,0z"/>
<path class="st0" d="M309.3,0c0.7,0,1.3,0,2,0c0,33.5,0,66.9,0,100.4c-0.7,0-1.3,0-2,0C309.3,67,309.3,33.6,309.3,0z"/>
<path class="st0" d="M340.7,0.1c0.7,0,1.3,0,2,0c0,33.5,0,66.9,0,100.4c-0.7,0-1.3,0-2,0C340.7,67,340.7,33.6,340.7,0.1z"/>
<path class="st0" d="M166.1,0.1c0.7,0,1.3,0,2,0c0,33.5,0,66.9,0,100.4c-0.6,0-1.3,0-2,0C166.1,67,166.1,33.6,166.1,0.1z"/>
<path class="st0" d="M266.6,100.5c-0.7,0-1.3,0-2,0c0-33.4,0-66.8,0-100.3c0.6,0,1.2,0,2,0C266.6,33.5,266.6,66.9,266.6,100.5z"/>
<path class="st0" d="M275.8,100.4c0-33.5,0-66.8,0-100.3c0.6,0,1.3,0,2,0c0,33.4,0,66.8,0,100.3
	C277.1,100.4,276.6,100.4,275.8,100.4z"/>
<path class="st0" d="M318.1,100.5c-0.7,0-1.3,0-2,0c0-33.5,0-66.9,0-100.4c0.7,0,1.3,0,2,0C318.1,33.5,318.1,66.9,318.1,100.5z"/>
</svg>
