<?xml version="1.0" encoding="utf-8"?>
<!-- Generator: Adobe Illustrator 25.4.1, SVG Export Plug-In . SVG Version: 6.00 Build 0)  -->
<svg version="1.1" id="Layer_1" xmlns="http://www.w3.org/2000/svg" xmlns:xlink="http://www.w3.org/1999/xlink" x="0px" y="0px"
	 viewBox="0 0 588 42" style="enable-background:new 0 0 588 42;" xml:space="preserve">
<style type="text/css">
	.st0{fill:#FFFFFF;}
</style>
<path class="st0" d="M24.02,18.19H6.87v-10h17.95v-4.4h-23v34.75h23.25l0.65-4.35H6.87V22.54h17.15V18.19z M36.69,38.54V25.29
	c0-6.3-0.05-12.4-0.3-16.2h0.1c2.1,3.95,12.9,22.05,17.35,29.45h6.3V3.79h-4.8v12.95c0,5.7-0.05,11.25,0.3,15.55h-0.05
	c-1.9-3.75-12.2-20.4-17.05-28.5h-6.7v34.75H36.69z M69.39,38.54h22.4l0.7-4.35H74.54V3.79h-5.15V38.54z M97.42,3.79v34.75h5.15
	V3.79H97.42z M108.93,28.79c0.75,5.5,4.65,10.2,13.4,10.2c8.65,0,12.9-4.4,12.9-10.15c0-4.5-1.85-8.35-11.8-10.75
	c-5.95-1.45-7.85-2.7-7.85-5.8c0-3.15,2.3-4.9,6.3-4.9c4.95,0,6.75,2.5,7.3,5.4h5.25c-0.5-4.65-3.95-9.5-12.4-9.5
	c-7.85,0-11.75,4.2-11.75,9.55c0,4.85,2.7,7.75,11.15,9.8c6.75,1.6,8.45,3.45,8.45,6.8c0,3.15-2.05,5.5-7.2,5.5
	c-4.85,0-7.6-2.15-8.55-6.15H108.93z M148.85,38.54h5.2V8.19h11.1v-4.4h-27.4v4.4h11.1V38.54z"/>
<rect x="191.32" y="4.54" class="st0" width="396" height="34"/>
</svg>
