<?xml version="1.0" encoding="utf-8"?>
<!-- Generator: Adobe Illustrator 25.4.1, SVG Export Plug-In . SVG Version: 6.00 Build 0)  -->
<svg version="1.1" id="Layer_1" xmlns="http://www.w3.org/2000/svg" xmlns:xlink="http://www.w3.org/1999/xlink" x="0px" y="0px"
	 viewBox="0 0 596 102" style="enable-background:new 0 0 596 102;" xml:space="preserve">
<style type="text/css">
	.st0{fill:#FFFFFF;}
</style>
<path class="st0" d="M10.22,37.27V24.02c0-6.3-0.05-12.4-0.3-16.2h0.1c2.1,3.95,12.9,22.05,17.35,29.45h6.3V2.52h-4.8v12.95
	c0,5.7-0.05,11.25,0.3,15.55h-0.05c-1.9-3.75-12.2-20.4-17.05-28.5h-6.7v34.75H10.22z M57.22,2.02c-10.55,0-16.45,7.9-16.45,17.9
	c0,9.95,5.7,17.85,16.05,17.85c11,0,16.45-8.45,16.45-18.05C73.27,9.32,67.07,2.02,57.22,2.02z M57.02,6.37
	c7.4,0,10.85,6.1,10.85,13.45c0,7.15-3.05,13.6-10.85,13.6c-7.2,0-10.85-6.3-10.85-13.65C46.17,12.47,49.47,6.37,57.02,6.37z
	 M86.58,37.27h5.2V6.92h11.1v-4.4h-27.4v4.4h11.1V37.27z M132.11,22.22c6.15,0,7.45,2.1,7.45,6.85v0.65c0,3.35,0,6.05,0.6,7.55h5
	c-0.55-1.5-0.5-4.45-0.5-6.85v-1.5c0-6.05-2.5-8.15-5.1-8.85c3.15-0.95,5.75-3.65,5.75-8.2c0-5.4-3.85-9.35-11.05-9.35h-13.9v34.75
	h5.1V22.22H132.11z M125.46,6.82h7.75c4.5,0,6.8,2,6.8,5.5c0,3.75-2.15,5.65-7.25,5.65h-7.3V6.82z M175.12,16.92h-17.15v-10h17.95
	v-4.4h-23v34.75h23.25l0.65-4.35h-18.85V21.27h17.15V16.92z M202.58,27.32l3.65,9.95h5.5l-12.8-34.75h-6.4l-12.25,34.75h5.15
	l3.5-9.95H202.58z M190.23,22.92c2.5-7.5,4.5-13.3,5.35-16.3h0.05c0.75,2.7,2.55,7.55,5.7,16.3H190.23z M216.99,37.27h12.45
	c10.2,0,16.65-7.5,16.65-17.75c0-10.3-6.6-17-16.45-17h-12.65V37.27z M222.14,6.87h7c8.15,0,11.55,6.1,11.55,12.75
	c0,7.65-3.7,13.35-11.6,13.35h-6.95V6.87z M265.24,37.27V24.62c0-0.5,0.1-0.7,0.2-0.9l12.55-21.2h-5.5
	c-3.15,5.55-8.1,14.25-9.6,17.35c-1.6-3.2-6.35-11.75-9.4-17.35h-5.9l12.2,21.15c0.15,0.25,0.25,0.6,0.25,0.95v12.65H265.24z
	 M301.72,37.27h5.2V6.92h11.1v-4.4h-27.4v4.4h11.1V37.27z M336.52,2.02c-10.55,0-16.45,7.9-16.45,17.9c0,9.95,5.7,17.85,16.05,17.85
	c11,0,16.45-8.45,16.45-18.05C352.57,9.32,346.37,2.02,336.52,2.02z M336.32,6.37c7.4,0,10.85,6.1,10.85,13.45
	c0,7.15-3.05,13.6-10.85,13.6c-7.2,0-10.85-6.3-10.85-13.65C325.47,12.47,328.77,6.37,336.32,6.37z M383.96,22.22
	c6.15,0,7.45,2.1,7.45,6.85v0.65c0,3.35,0,6.05,0.6,7.55h5c-0.55-1.5-0.5-4.45-0.5-6.85v-1.5c0-6.05-2.5-8.15-5.1-8.85
	c3.15-0.95,5.75-3.65,5.75-8.2c0-5.4-3.85-9.35-11.05-9.35h-13.9v34.75h5.1V22.22H383.96z M377.31,6.82h7.75c4.5,0,6.8,2,6.8,5.5
	c0,3.75-2.15,5.65-7.25,5.65h-7.3V6.82z M404.78,2.52v34.75h5.15V2.52H404.78z M416.29,27.52c0.75,5.5,4.65,10.2,13.4,10.2
	c8.65,0,12.9-4.4,12.9-10.15c0-4.5-1.85-8.35-11.8-10.75c-5.95-1.45-7.85-2.7-7.85-5.8c0-3.15,2.3-4.9,6.3-4.9
	c4.95,0,6.75,2.5,7.3,5.4h5.25c-0.5-4.65-3.95-9.5-12.4-9.5c-7.85,0-11.75,4.2-11.75,9.55c0,4.85,2.7,7.75,11.15,9.8
	c6.75,1.6,8.45,3.45,8.45,6.8c0,3.15-2.05,5.5-7.2,5.5c-4.85,0-7.6-2.15-8.55-6.15H416.29z M471.36,16.92h-17.15v-10h17.95v-4.4h-23
	v34.75h23.25l0.65-4.35h-18.85V21.27h17.15V16.92z M498.74,37.27h5.2V6.92h11.1v-4.4h-27.4v4.4h11.1V37.27z M533.54,2.02
	c-10.55,0-16.45,7.9-16.45,17.9c0,9.95,5.7,17.85,16.05,17.85c11,0,16.45-8.45,16.45-18.05C549.59,9.32,543.39,2.02,533.54,2.02z
	 M533.34,6.37c7.4,0,10.85,6.1,10.85,13.45c0,7.15-3.05,13.6-10.85,13.6c-7.2,0-10.85-6.3-10.85-13.65
	C522.49,12.47,525.79,6.37,533.34,6.37z M12.37,97.27h5.2V66.92h11.1v-4.4H1.27v4.4h11.1V97.27z M33.59,97.27h5.15V81.22h17.3v16.05
	h5.15V62.52h-5.15v14.35h-17.3V62.52h-5.15V97.27z M92.65,76.92H75.5v-10h17.95v-4.4h-23v34.75H93.7l0.65-4.35H75.5V81.27h17.15
	V76.92z M127.58,62.02c-10.55,0-16.45,7.9-16.45,17.9c0,9.95,5.7,17.85,16.05,17.85c11,0,16.45-8.45,16.45-18.05
	C143.63,69.32,137.43,62.02,127.58,62.02z M127.38,66.37c7.4,0,10.85,6.1,10.85,13.45c0,7.15-3.05,13.6-10.85,13.6
	c-7.2,0-10.85-6.3-10.85-13.65C116.53,72.47,119.83,66.37,127.38,66.37z M173.43,87.27c-1.2,3.1-3.4,6.2-8.65,6.2
	c-7.75,0-10.55-6.95-10.55-13.6c0-6.9,2.95-13.6,10.35-13.6c5.35,0,7.7,2.8,8.85,6.4h5.15c-0.95-5.8-5.4-10.65-13.8-10.65
	c-10.7,0-15.95,8.55-15.95,18c0,9.85,5.25,17.7,15.75,17.7c8,0,12.5-4.45,14-10.45H173.43z M208.19,87.27c-1.2,3.1-3.4,6.2-8.65,6.2
	c-7.75,0-10.55-6.95-10.55-13.6c0-6.9,2.95-13.6,10.35-13.6c5.35,0,7.7,2.8,8.85,6.4h5.15c-0.95-5.8-5.4-10.65-13.8-10.65
	c-10.7,0-15.95,8.55-15.95,18c0,9.85,5.25,17.7,15.75,17.7c8,0,12.5-4.45,14-10.45H208.19z M238.52,87.32l3.65,9.95h5.5l-12.8-34.75
	h-6.4l-12.25,34.75h5.15l3.5-9.95H238.52z M226.17,82.92c2.5-7.5,4.5-13.3,5.35-16.3h0.05c0.75,2.7,2.55,7.55,5.7,16.3H226.17z
	 M250.81,87.52c0.75,5.5,4.65,10.2,13.4,10.2c8.65,0,12.9-4.4,12.9-10.15c0-4.5-1.85-8.35-11.8-10.75c-5.95-1.45-7.85-2.7-7.85-5.8
	c0-3.15,2.3-4.9,6.3-4.9c4.95,0,6.75,2.5,7.3,5.4h5.25c-0.5-4.65-3.95-9.5-12.4-9.5c-7.85,0-11.75,4.2-11.75,9.55
	c0,4.85,2.7,7.75,11.15,9.8c6.75,1.6,8.45,3.45,8.45,6.8c0,3.15-2.05,5.5-7.2,5.5c-4.85,0-7.6-2.15-8.55-6.15H250.81z M283.69,62.52
	v34.75h5.15V62.52H283.69z M312.4,62.02c-10.55,0-16.45,7.9-16.45,17.9c0,9.95,5.7,17.85,16.05,17.85c11,0,16.45-8.45,16.45-18.05
	C328.45,69.32,322.25,62.02,312.4,62.02z M312.2,66.37c7.4,0,10.85,6.1,10.85,13.45c0,7.15-3.05,13.6-10.85,13.6
	c-7.2,0-10.85-6.3-10.85-13.65C301.35,72.47,304.65,66.37,312.2,66.37z M340.39,97.27V84.02c0-6.3-0.05-12.4-0.3-16.2h0.1
	c2.1,3.95,12.9,22.05,17.35,29.45h6.3V62.52h-4.8v12.95c0,5.7-0.05,11.25,0.3,15.55h-0.05c-1.9-3.75-12.2-20.4-17.05-28.5h-6.7
	v34.75H340.39z M383.5,86.72v-0.45c0-2.35,0.75-4.05,3.2-6.25c3.65-3.35,4.75-5.6,4.75-9.05c0-3.8-2.4-8.9-9.9-8.95
	c-8.15,0-10.35,6.2-10.5,9.5h4.8c0.5-3.25,2.1-5.5,5.6-5.5c3.55,0,5,2.55,5,4.85c0,2-0.5,3.85-3.25,6.3c-3.9,3.5-4.8,5.95-4.8,8.75
	v0.8H383.5z M383.5,97.27v-7.15h-5.1v7.15H383.5z"/>
<rect x="411.87" y="66.27" class="st0" width="182" height="34"/>
</svg>
