<?xml version="1.0" encoding="utf-8"?>
<!-- Generator: Adobe Illustrator 25.4.1, SVG Export Plug-In . SVG Version: 6.00 Build 0)  -->
<svg version="1.1" id="Layer_1" xmlns="http://www.w3.org/2000/svg" xmlns:xlink="http://www.w3.org/1999/xlink" x="0px" y="0px"
	 viewBox="0 0 592 42" style="enable-background:new 0 0 592 42;" xml:space="preserve">
<style type="text/css">
	.st0{fill:#FFFFFF;}
</style>
<path class="st0" d="M23.32,28.59l3.65,9.95h5.5L19.67,3.79h-6.4L1.02,38.54h5.15l3.5-9.95H23.32z M10.97,24.19
	c2.5-7.5,4.5-13.3,5.35-16.3h0.05c0.75,2.7,2.55,7.55,5.7,16.3H10.97z M42.57,38.54V25.29c0-6.3-0.05-12.4-0.3-16.2h0.1
	c2.1,3.95,12.9,22.05,17.35,29.45h6.3V3.79h-4.8v12.95c0,5.7-0.05,11.25,0.3,15.55h-0.05c-1.9-3.75-12.2-20.4-17.05-28.5h-6.7v34.75
	H42.57z M72.38,28.79c0.75,5.5,4.65,10.2,13.4,10.2c8.65,0,12.9-4.4,12.9-10.15c0-4.5-1.85-8.35-11.8-10.75
	c-5.95-1.45-7.85-2.7-7.85-5.8c0-3.15,2.3-4.9,6.3-4.9c4.95,0,6.75,2.5,7.3,5.4h5.25c-0.5-4.65-3.95-9.5-12.4-9.5
	c-7.85,0-11.75,4.2-11.75,9.55c0,4.85,2.7,7.75,11.15,9.8c6.75,1.6,8.45,3.45,8.45,6.8c0,3.15-2.05,5.5-7.2,5.5
	c-4.85,0-7.6-2.15-8.55-6.15H72.38z M116.26,38.54c2.15-7.8,6.4-22.6,7.45-27.95h0.05c0.95,4.5,5.15,20,7.2,27.95h5.45l10-34.75
	h-5.05c-1.8,6.85-6.35,22.65-7.5,29h-0.05c-0.85-4.6-5.35-21.45-7.35-29h-4.95c-2.2,8.8-6.7,24.35-7.7,29.2h-0.05
	c-0.6-3.95-3.9-16.95-6.7-29.2h-5.5l9.25,34.75H116.26z M174.03,18.19h-17.15v-10h17.95v-4.4h-23v34.75h23.25l0.65-4.35h-18.85
	V22.54h17.15V18.19z M193.61,23.49c6.15,0,7.45,2.1,7.45,6.85v0.65c0,3.35,0,6.05,0.6,7.55h5c-0.55-1.5-0.5-4.45-0.5-6.85v-1.5
	c0-6.05-2.5-8.15-5.1-8.85c3.15-0.95,5.75-3.65,5.75-8.2c0-5.4-3.85-9.35-11.05-9.35h-13.9v34.75h5.1V23.49H193.61z M186.96,8.09
	h7.75c4.5,0,6.8,2,6.8,5.5c0,3.75-2.15,5.65-7.25,5.65h-7.3V8.09z M212.03,28.79c0.75,5.5,4.65,10.2,13.4,10.2
	c8.65,0,12.9-4.4,12.9-10.15c0-4.5-1.85-8.35-11.8-10.75c-5.95-1.45-7.85-2.7-7.85-5.8c0-3.15,2.3-4.9,6.3-4.9
	c4.95,0,6.75,2.5,7.3,5.4h5.25c-0.5-4.65-3.95-9.5-12.4-9.5c-7.85,0-11.75,4.2-11.75,9.55c0,4.85,2.7,7.75,11.15,9.8
	c6.75,1.6,8.45,3.45,8.45,6.8c0,3.15-2.05,5.5-7.2,5.5c-4.85,0-7.6-2.15-8.55-6.15H212.03z"/>
<rect x="254.12" y="4.54" class="st0" width="336" height="34"/>
<path class="st0" d="M23.32,28.59l3.65,9.95h5.5L19.67,3.79h-6.4L1.02,38.54h5.15l3.5-9.95H23.32z M10.97,24.19
	c2.5-7.5,4.5-13.3,5.35-16.3h0.05c0.75,2.7,2.55,7.55,5.7,16.3H10.97z M42.57,38.54V25.29c0-6.3-0.05-12.4-0.3-16.2h0.1
	c2.1,3.95,12.9,22.05,17.35,29.45h6.3V3.79h-4.8v12.95c0,5.7-0.05,11.25,0.3,15.55h-0.05c-1.9-3.75-12.2-20.4-17.05-28.5h-6.7v34.75
	H42.57z M72.38,28.79c0.75,5.5,4.65,10.2,13.4,10.2c8.65,0,12.9-4.4,12.9-10.15c0-4.5-1.85-8.35-11.8-10.75
	c-5.95-1.45-7.85-2.7-7.85-5.8c0-3.15,2.3-4.9,6.3-4.9c4.95,0,6.75,2.5,7.3,5.4h5.25c-0.5-4.65-3.95-9.5-12.4-9.5
	c-7.85,0-11.75,4.2-11.75,9.55c0,4.85,2.7,7.75,11.15,9.8c6.75,1.6,8.45,3.45,8.45,6.8c0,3.15-2.05,5.5-7.2,5.5
	c-4.85,0-7.6-2.15-8.55-6.15H72.38z M116.26,38.54c2.15-7.8,6.4-22.6,7.45-27.95h0.05c0.95,4.5,5.15,20,7.2,27.95h5.45l10-34.75
	h-5.05c-1.8,6.85-6.35,22.65-7.5,29h-0.05c-0.85-4.6-5.35-21.45-7.35-29h-4.95c-2.2,8.8-6.7,24.35-7.7,29.2h-0.05
	c-0.6-3.95-3.9-16.95-6.7-29.2h-5.5l9.25,34.75H116.26z M174.03,18.19h-17.15v-10h17.95v-4.4h-23v34.75h23.25l0.65-4.35h-18.85
	V22.54h17.15V18.19z M193.61,23.49c6.15,0,7.45,2.1,7.45,6.85v0.65c0,3.35,0,6.05,0.6,7.55h5c-0.55-1.5-0.5-4.45-0.5-6.85v-1.5
	c0-6.05-2.5-8.15-5.1-8.85c3.15-0.95,5.75-3.65,5.75-8.2c0-5.4-3.85-9.35-11.05-9.35h-13.9v34.75h5.1V23.49H193.61z M186.96,8.09
	h7.75c4.5,0,6.8,2,6.8,5.5c0,3.75-2.15,5.65-7.25,5.65h-7.3V8.09z M212.03,28.79c0.75,5.5,4.65,10.2,13.4,10.2
	c8.65,0,12.9-4.4,12.9-10.15c0-4.5-1.85-8.35-11.8-10.75c-5.95-1.45-7.85-2.7-7.85-5.8c0-3.15,2.3-4.9,6.3-4.9
	c4.95,0,6.75,2.5,7.3,5.4h5.25c-0.5-4.65-3.95-9.5-12.4-9.5c-7.85,0-11.75,4.2-11.75,9.55c0,4.85,2.7,7.75,11.15,9.8
	c6.75,1.6,8.45,3.45,8.45,6.8c0,3.15-2.05,5.5-7.2,5.5c-4.85,0-7.6-2.15-8.55-6.15H212.03z"/>
<rect x="254.12" y="4.54" class="st0" width="336" height="34"/>
</svg>
